<?xml version="1.0" standalone="no"?>
<!DOCTYPE svg PUBLIC "-//W3C//DTD SVG 20010904//EN"
 "http://www.w3.org/TR/2001/REC-SVG-20010904/DTD/svg10.dtd">
<svg version="1.0" xmlns="http://www.w3.org/2000/svg"
 width="300.000000pt" height="300.000000pt" viewBox="0 0 300.000000 300.000000"
 preserveAspectRatio="xMidYMid meet">
<metadata>
Created by potrace 1.11, written by Peter Selinger 2001-2013
</metadata>
<g transform="translate(0.000000,300.000000) scale(0.100000,-0.100000)"
fill="#000000" stroke="none">
<path d="M1208 2745 c-2 -2 -61 -6 -133 -10 -71 -4 -157 -8 -190 -10 -33 -2
-174 -4 -312 -4 l-253 -1 0 -66 0 -65 58 -27 c31 -14 62 -27 67 -29 6 -1 44
-12 86 -24 l76 -21 -1 -991 -1 -990 -65 -18 c-76 -22 -165 -57 -198 -77 -19
-12 -22 -23 -22 -78 l0 -64 253 -1 c265 -1 283 -2 467 -15 148 -11 435 -11
525 -1 239 27 449 98 627 212 85 55 228 196 280 275 84 129 150 287 177 430 6
30 14 66 16 80 24 117 24 401 1 542 -59 363 -246 638 -539 793 -128 68 -285
121 -417 140 -25 4 -61 9 -80 12 -39 6 -417 13 -422 8z m342 -250 c288 -91
468 -328 536 -706 18 -103 24 -355 11 -479 -44 -416 -215 -694 -493 -799 -28
-11 -71 -23 -95 -28 -52 -9 -357 -10 -382 0 -16 6 -17 75 -17 1016 l0 1010 43
3 c117 10 344 0 397 -17z"/>
</g>
</svg>
